<svg xmlns="http://www.w3.org/2000/svg" viewBox="75.5 -0.5 27 40"><defs><style>.cls-1{fill:#00e3cc;}</style></defs><path class="cls-1" d="M99.53,16.33q-2.1-2.47-6.31-2.48a10,10,0,0,0-4.92,1.2,7.53,7.53,0,0,0-2.61,2.62c0-1.08,0-3.3,0-3.3H77.22v24h8.42V25a4.79,4.79,0,0,1,1.23-3.43,4.25,4.25,0,0,1,3.22-1.3,2.93,2.93,0,0,1,2.32.92,5,5,0,0,1,.8,3.24v14h8.42V24.07C101.64,20.56,100.94,18,99.53,16.33Z"/><path class="cls-1" d="M97.29,0a5.12,5.12,0,0,0-5.11,5q-1-.45-2-1c-2.35-1.27-4-2.31-4-2.32A12.22,12.22,0,0,0,83,.26a5.09,5.09,0,0,0-6.7,4.84A5.1,5.1,0,0,0,86.41,6.28c.55.32,1.19.68,1.9,1.07,3.57,1.93,6.5,2.91,8.71,2.91a5.39,5.39,0,0,0,2.32-.48,5.11,5.11,0,0,0-2-9.78Z"/></svg>
