<svg xmlns="http://www.w3.org/2000/svg" viewBox="0 0 153.13 38.92"><defs><style>.cls-1{fill:#00e3cc;}</style></defs><g id="Capa_2" data-name="Capa 2"><g id="Fondo"><path class="cls-1" d="M10.69,38.92a24.79,24.79,0,0,1-6.08-.69A16.14,16.14,0,0,1,0,36.36l2-5.48a19.39,19.39,0,0,0,4.14,1.7,16.45,16.45,0,0,0,4.57.66,4.9,4.9,0,0,0,2.62-.54,1.67,1.67,0,0,0,.83-1.44,1.38,1.38,0,0,0-.52-1.14,3.55,3.55,0,0,0-1.56-.62L7,28.61a8.76,8.76,0,0,1-4.71-2.25A5.92,5.92,0,0,1,.61,22,7.14,7.14,0,0,1,1.94,17.7a8.52,8.52,0,0,1,3.78-2.83,15.14,15.14,0,0,1,5.82-1,21.72,21.72,0,0,1,5.23.61A12.59,12.59,0,0,1,21.1,16.4l-2.18,5.35a13.46,13.46,0,0,0-3.43-1.63,11.77,11.77,0,0,0-3.66-.64,5.22,5.22,0,0,0-2.89.59,1.7,1.7,0,0,0-.85,1.44,1.49,1.49,0,0,0,.47,1.11,2.91,2.91,0,0,0,1.51.64l5.11.9A8.78,8.78,0,0,1,20,26.31a5.88,5.88,0,0,1,1.68,4.42,7.08,7.08,0,0,1-1.39,4.43A8.84,8.84,0,0,1,16.41,38,15.64,15.64,0,0,1,10.69,38.92Z"></path><path class="cls-1" d="M65.32,38.92q-6.52,0-10.15-3.36t-3.62-9.22a13.54,13.54,0,0,1,1.52-6.48,11,11,0,0,1,4.25-4.43,12.73,12.73,0,0,1,6.44-1.58,11,11,0,0,1,6.08,1.58,9.88,9.88,0,0,1,3.66,4.35,15.7,15.7,0,0,1,1.23,6.41V28H58.6V24h9.93l-.8.66a6.45,6.45,0,0,0-1-4,3.43,3.43,0,0,0-2.86-1.3A3.7,3.7,0,0,0,60.61,21a8.29,8.29,0,0,0-1.11,4.75v.85a6.1,6.1,0,0,0,1.56,4.64,6.32,6.32,0,0,0,4.5,1.46,14.68,14.68,0,0,0,3.57-.42,11.36,11.36,0,0,0,3.19-1.37l2.17,5.48a14.06,14.06,0,0,1-4.16,1.9A18.54,18.54,0,0,1,65.32,38.92Z"></path><path class="cls-1" d="M117.17,38.92a15,15,0,0,1-7-1.52,10.82,10.82,0,0,1-4.54-4.32,13.32,13.32,0,0,1-1.61-6.7,13.25,13.25,0,0,1,1.61-6.71,10.92,10.92,0,0,1,4.54-4.31,16.66,16.66,0,0,1,13.86,0,10.78,10.78,0,0,1,4.54,4.33,13.31,13.31,0,0,1,1.61,6.69,13.31,13.31,0,0,1-1.61,6.67,10.71,10.71,0,0,1-4.54,4.35A14.89,14.89,0,0,1,117.17,38.92Zm0-6.25a4,4,0,0,0,3.31-1.49c.82-1,1.24-2.59,1.24-4.8a7.54,7.54,0,0,0-1.24-4.8,4.47,4.47,0,0,0-6.66,0q-1.23,1.5-1.23,4.8t1.23,4.8A4.07,4.07,0,0,0,117.17,32.67Z"></path><path class="cls-1" d="M142.16,38.92a24.73,24.73,0,0,1-6.08-.69,16.14,16.14,0,0,1-4.61-1.86h0l2-5.48a19.39,19.39,0,0,0,4.14,1.7,16.45,16.45,0,0,0,4.57.66,4.93,4.93,0,0,0,2.62-.54,1.67,1.67,0,0,0,.83-1.44,1.41,1.41,0,0,0-.52-1.14,3.55,3.55,0,0,0-1.56-.62l-5.11-.89a8.76,8.76,0,0,1-4.71-2.25A5.92,5.92,0,0,1,132.08,22a7.07,7.07,0,0,1,1.33-4.28,8.52,8.52,0,0,1,3.78-2.83,15.14,15.14,0,0,1,5.82-1,21.72,21.72,0,0,1,5.23.61,12.54,12.54,0,0,1,4.32,1.94l-2.17,5.35A13.46,13.46,0,0,0,147,20.12a11.78,11.78,0,0,0-3.67-.64,5.2,5.2,0,0,0-2.88.59,1.7,1.7,0,0,0-.85,1.44,1.45,1.45,0,0,0,.47,1.11,2.87,2.87,0,0,0,1.51.64l5.11.9a8.78,8.78,0,0,1,4.8,2.15,5.88,5.88,0,0,1,1.68,4.42,7.08,7.08,0,0,1-1.39,4.43A8.84,8.84,0,0,1,147.88,38,15.68,15.68,0,0,1,142.16,38.92Z"></path><path class="cls-1" d="M26.58,36.43c1.4,1.66,3.51,2.49,6.31,2.49a9.91,9.91,0,0,0,4.92-1.21,7.36,7.36,0,0,0,2.61-2.62c0,1.08,0,3.31,0,3.31h8.44v-24H40.46V27.75a4.77,4.77,0,0,1-1.23,3.43A4.21,4.21,0,0,1,36,32.48a2.88,2.88,0,0,1-2.31-.92,4.94,4.94,0,0,1-.81-3.24V14.37H24.47V28.7C24.47,32.2,25.18,34.78,26.58,36.43Z"></path><path class="cls-1" d="M99.53,16.33q-2.1-2.47-6.31-2.48a10,10,0,0,0-4.92,1.2,7.53,7.53,0,0,0-2.61,2.62c0-1.08,0-3.3,0-3.3H77.22v24h8.42V25a4.79,4.79,0,0,1,1.23-3.43,4.25,4.25,0,0,1,3.22-1.3,2.93,2.93,0,0,1,2.32.92,5,5,0,0,1,.8,3.24v14h8.42V24.07C101.64,20.56,100.94,18,99.53,16.33Z"></path><path class="cls-1" d="M97.29,0a5.12,5.12,0,0,0-5.11,5q-1-.45-2-1c-2.35-1.27-4-2.31-4-2.32A12.22,12.22,0,0,0,83,.26a5.09,5.09,0,0,0-6.7,4.84A5.1,5.1,0,0,0,86.41,6.28c.55.32,1.19.68,1.9,1.07,3.57,1.93,6.5,2.91,8.71,2.91a5.39,5.39,0,0,0,2.32-.48,5.11,5.11,0,0,0-2-9.78Z"></path></g></g></svg>